<?xml version="1.0" encoding="UTF-8" standalone="no"?>
<!-- Created with Inkscape (http://www.inkscape.org/) -->

<svg
   xmlns:osb="http://www.openswatchbook.org/uri/2009/osb"
   xmlns:dc="http://purl.org/dc/elements/1.1/"
   xmlns:cc="http://creativecommons.org/ns#"
   xmlns:rdf="http://www.w3.org/1999/02/22-rdf-syntax-ns#"
   xmlns:svg="http://www.w3.org/2000/svg"
   xmlns="http://www.w3.org/2000/svg"
   xmlns:sodipodi="http://sodipodi.sourceforge.net/DTD/sodipodi-0.dtd"
   xmlns:inkscape="http://www.inkscape.org/namespaces/inkscape"
   width="744.09448819"
   height="1052.3622047"
   id="svg2"
   version="1.1"
   inkscape:version="0.48.0 r9654"
   sodipodi:docname="New document 1">
  <defs
     id="defs4">
    <marker
       inkscape:stockid="Arrow2Lend"
       orient="auto"
       refY="0.0"
       refX="0.0"
       id="Arrow2Lend"
       style="overflow:visible;">
      <path
         id="path5317"
         style="font-size:12.0;fill-rule:evenodd;stroke-width:0.62500000;stroke-linejoin:round;"
         d="M 8.7185878,4.0337352 L -2.2072895,0.016013256 L 8.7185884,-4.0017078 C 6.9730900,-1.6296469 6.9831476,1.6157441 8.7185878,4.0337352 z "
         transform="scale(1.1) rotate(180) translate(1,0)" />
    </marker>
    <linearGradient
       id="linearGradient5201"
       osb:paint="solid">
      <stop
         style="stop-color:#000000;stop-opacity:1;"
         offset="0"
         id="stop5203" />
    </linearGradient>
    <marker
       inkscape:stockid="Arrow2Lend"
       orient="auto"
       refY="0"
       refX="0"
       id="Arrow2Lend-2"
       style="overflow:visible">
      <path
         inkscape:connector-curvature="0"
         id="path5317-8"
         style="font-size:12px;fill-rule:evenodd;stroke-width:0.625;stroke-linejoin:round"
         d="M 8.7185878,4.0337352 -2.2072895,0.01601326 8.7185884,-4.0017078 c -1.7454984,2.3720609 -1.7354408,5.6174519 -6e-7,8.035443 z"
         transform="matrix(-1.1,0,0,-1.1,-1.1,0)" />
    </marker>
  </defs>
  <sodipodi:namedview
     id="base"
     pagecolor="#ffffff"
     bordercolor="#666666"
     borderopacity="1.0"
     inkscape:pageopacity="0.0"
     inkscape:pageshadow="2"
     inkscape:zoom="1.43"
     inkscape:cx="324.37734"
     inkscape:cy="637.58145"
     inkscape:document-units="px"
     inkscape:current-layer="layer1"
     showgrid="false"
     inkscape:window-width="1275"
     inkscape:window-height="877"
     inkscape:window-x="586"
     inkscape:window-y="121"
     inkscape:window-maximized="0" />
  <metadata
     id="metadata7">
    <rdf:RDF>
      <cc:Work
         rdf:about="">
        <dc:format>image/svg+xml</dc:format>
        <dc:type
           rdf:resource="http://purl.org/dc/dcmitype/StillImage" />
        <dc:title></dc:title>
      </cc:Work>
    </rdf:RDF>
  </metadata>
  <g
     inkscape:label="Layer 1"
     inkscape:groupmode="layer"
     id="layer1">
    <rect
       style="fill:#e6e6e6;fill-opacity:1;stroke:#000000;stroke-width:1;stroke-linejoin:round;stroke-miterlimit:4;stroke-opacity:1;stroke-dasharray:none;stroke-dashoffset:0"
       id="rect7767"
       width="713.98602"
       height="493.7063"
       x="17.482517"
       y="170.54401" />
    <rect
       style="fill:#ffffff;fill-opacity:1;stroke:#000000;stroke-width:1;stroke-linejoin:round;stroke-miterlimit:4;stroke-opacity:1;stroke-dasharray:none;stroke-dashoffset:0"
       id="rect5285"
       width="110.56338"
       height="109.85915"
       x="199.29578"
       y="214.33401" />
    <rect
       style="opacity:0.90000000000000002;fill:#ffffff;fill-opacity:1;stroke:#000000;stroke-width:0;stroke-linejoin:round;stroke-miterlimit:4;stroke-opacity:1;stroke-dasharray:none;stroke-dashoffset:0"
       id="rect2985"
       width="151.06383"
       height="54.255318"
       x="54.255318"
       y="109.80899" />
    <rect
       style="fill:#ffffff;fill-opacity:1;stroke:#000000;stroke-width:1;stroke-linejoin:round;stroke-miterlimit:4;stroke-opacity:1;stroke-dasharray:none;stroke-dashoffset:0"
       id="rect3755"
       width="74.586327"
       height="19.76021"
       x="68.888725"
       y="210.99559" />
    <text
       xml:space="preserve"
       style="font-size:10px;font-style:normal;font-variant:normal;font-weight:normal;font-stretch:normal;line-height:125%;letter-spacing:0px;word-spacing:0px;fill:#000000;fill-opacity:1;stroke:none;font-family:Arial Narrow;-inkscape-font-specification:Arial Narrow"
       x="72"
       y="206.36218"
       id="text5207"
       sodipodi:linespacing="125%"><tspan
         sodipodi:role="line"
         id="tspan5209"
         x="72"
         y="206.36218">c1</tspan></text>
    <text
       xml:space="preserve"
       style="font-size:10px;font-style:normal;font-variant:normal;font-weight:normal;font-stretch:normal;line-height:125%;letter-spacing:0px;word-spacing:0px;fill:#000000;fill-opacity:1;stroke:none;font-family:Arial Narrow;-inkscape-font-specification:Arial Narrow"
       x="92"
       y="244.36218"
       id="text5211"
       sodipodi:linespacing="125%"><tspan
         sodipodi:role="line"
         id="tspan5213"
         x="92"
         y="244.36218">Complex REF</tspan></text>
    <rect
       style="fill:#ffffff;fill-opacity:1;stroke:#000000;stroke-width:1;stroke-linejoin:round;stroke-miterlimit:4;stroke-opacity:1;stroke-dasharray:none;stroke-dashoffset:0"
       id="rect3755-4"
       width="74.586327"
       height="19.76021"
       x="216.70683"
       y="237.59569" />
    <text
       xml:space="preserve"
       style="font-size:10px;font-style:normal;font-variant:normal;font-weight:normal;font-stretch:normal;line-height:125%;letter-spacing:0px;word-spacing:0px;fill:#000000;fill-opacity:1;stroke:none;font-family:Arial Narrow;-inkscape-font-specification:Arial Narrow"
       x="219.81812"
       y="232.96228"
       id="text5207-7"
       sodipodi:linespacing="125%"><tspan
         sodipodi:role="line"
         id="tspan5209-5"
         x="219.81812"
         y="232.96228">real</tspan></text>
    <text
       xml:space="preserve"
       style="font-size:10px;font-style:normal;font-variant:normal;font-weight:normal;font-stretch:normal;line-height:125%;letter-spacing:0px;word-spacing:0px;fill:#000000;fill-opacity:1;stroke:none;font-family:Arial Narrow;-inkscape-font-specification:Arial Narrow"
       x="264.466"
       y="267.44116"
       id="text5211-2"
       sodipodi:linespacing="125%"><tspan
         sodipodi:role="line"
         id="tspan5213-9"
         x="264.466"
         y="267.44116">double</tspan></text>
    <text
       xml:space="preserve"
       style="font-size:10px;font-style:normal;font-variant:normal;font-weight:normal;font-stretch:normal;line-height:125%;letter-spacing:0px;word-spacing:0px;fill:#000000;fill-opacity:1;stroke:none;font-family:Arial Narrow;-inkscape-font-specification:Arial Narrow"
       x="268.30984"
       y="250.95372"
       id="text5245"
       sodipodi:linespacing="125%"><tspan
         sodipodi:role="line"
         id="tspan5247"
         x="268.30984"
         y="250.95372">0.0</tspan></text>
    <rect
       style="fill:#ffffff;fill-opacity:1;stroke:#000000;stroke-width:1;stroke-linejoin:round;stroke-miterlimit:4;stroke-opacity:1;stroke-dasharray:none;stroke-dashoffset:0"
       id="rect3755-4-2"
       width="74.586327"
       height="19.76021"
       x="218.34064"
       y="282.00906" />
    <text
       xml:space="preserve"
       style="font-size:10px;font-style:normal;font-variant:normal;font-weight:normal;font-stretch:normal;line-height:125%;letter-spacing:0px;word-spacing:0px;fill:#000000;fill-opacity:1;stroke:none;font-family:Arial Narrow;-inkscape-font-specification:Arial Narrow"
       x="221.45193"
       y="277.37567"
       id="text5207-7-8"
       sodipodi:linespacing="125%"><tspan
         sodipodi:role="line"
         id="tspan5209-5-1"
         x="221.45193"
         y="277.37567">imag</tspan></text>
    <text
       xml:space="preserve"
       style="font-size:10px;font-style:normal;font-variant:normal;font-weight:normal;font-stretch:normal;line-height:125%;letter-spacing:0px;word-spacing:0px;fill:#000000;fill-opacity:1;stroke:none;font-family:Arial Narrow;-inkscape-font-specification:Arial Narrow"
       x="266.09982"
       y="311.85455"
       id="text5211-2-8"
       sodipodi:linespacing="125%"><tspan
         sodipodi:role="line"
         id="tspan5213-9-8"
         x="266.09982"
         y="311.85455">double</tspan></text>
    <text
       xml:space="preserve"
       style="font-size:10px;font-style:normal;font-variant:normal;font-weight:normal;font-stretch:normal;line-height:125%;letter-spacing:0px;word-spacing:0px;fill:#000000;fill-opacity:1;stroke:none;font-family:Arial Narrow;-inkscape-font-specification:Arial Narrow"
       x="269.94366"
       y="295.3671"
       id="text5245-3"
       sodipodi:linespacing="125%"><tspan
         sodipodi:role="line"
         id="tspan5247-3"
         x="269.94366"
         y="295.3671">0.0</tspan></text>
    <text
       xml:space="preserve"
       style="font-size:10px;font-style:normal;font-variant:normal;font-weight:normal;font-stretch:normal;line-height:125%;letter-spacing:0px;word-spacing:0px;fill:#000000;fill-opacity:1;stroke:none;font-family:Arial Narrow;-inkscape-font-specification:Arial Narrow"
       x="273.94366"
       y="334.75653"
       id="text5287"
       sodipodi:linespacing="125%"><tspan
         sodipodi:role="line"
         id="tspan5289"
         x="273.94366"
         y="334.75653">Complex</tspan></text>
    <path
       style="fill:none;stroke:#000000;stroke-width:1px;stroke-linecap:butt;stroke-linejoin:miter;stroke-opacity:1;marker-end:url(#Arrow2Lend)"
       d="m 124.64789,219.96782 c 36.61972,-22.53521 21.83098,27.46479 47.1831,18.30986 25.35211,-9.15493 25.35211,-9.15493 25.35211,-9.15493"
       id="path5921"
       inkscape:connector-curvature="0" />
    <rect
       style="fill:#ffffff;fill-opacity:1;stroke:#000000;stroke-width:1;stroke-linejoin:round;stroke-miterlimit:4;stroke-opacity:1;stroke-dasharray:none;stroke-dashoffset:0"
       id="rect5285-0"
       width="110.56338"
       height="109.85915"
       x="454.99225"
       y="217.75102" />
    <rect
       style="fill:#ffffff;fill-opacity:1;stroke:#000000;stroke-width:1;stroke-linejoin:round;stroke-miterlimit:4;stroke-opacity:1;stroke-dasharray:none;stroke-dashoffset:0"
       id="rect3755-6"
       width="74.586327"
       height="19.76021"
       x="324.58521"
       y="214.41258" />
    <text
       xml:space="preserve"
       style="font-size:10px;font-style:normal;font-variant:normal;font-weight:normal;font-stretch:normal;line-height:125%;letter-spacing:0px;word-spacing:0px;fill:#000000;fill-opacity:1;stroke:none;font-family:Arial Narrow;-inkscape-font-specification:Arial Narrow"
       x="327.6965"
       y="209.77919"
       id="text5207-3"
       sodipodi:linespacing="125%"><tspan
         sodipodi:role="line"
         id="tspan5209-2"
         x="327.6965"
         y="209.77919">c1</tspan></text>
    <text
       xml:space="preserve"
       style="font-size:10px;font-style:normal;font-variant:normal;font-weight:normal;font-stretch:normal;line-height:125%;letter-spacing:0px;word-spacing:0px;fill:#000000;fill-opacity:1;stroke:none;font-family:Arial Narrow;-inkscape-font-specification:Arial Narrow"
       x="347.6965"
       y="247.77919"
       id="text5211-9"
       sodipodi:linespacing="125%"><tspan
         sodipodi:role="line"
         id="tspan5213-4"
         x="347.6965"
         y="247.77919">Complex REF</tspan></text>
    <rect
       style="fill:#ffffff;fill-opacity:1;stroke:#000000;stroke-width:1;stroke-linejoin:round;stroke-miterlimit:4;stroke-opacity:1;stroke-dasharray:none;stroke-dashoffset:0"
       id="rect3755-4-6"
       width="74.586327"
       height="19.76021"
       x="472.40332"
       y="241.01268" />
    <text
       xml:space="preserve"
       style="font-size:10px;font-style:normal;font-variant:normal;font-weight:normal;font-stretch:normal;line-height:125%;letter-spacing:0px;word-spacing:0px;fill:#000000;fill-opacity:1;stroke:none;font-family:Arial Narrow;-inkscape-font-specification:Arial Narrow"
       x="475.51459"
       y="236.37929"
       id="text5207-7-3"
       sodipodi:linespacing="125%"><tspan
         sodipodi:role="line"
         id="tspan5209-5-3"
         x="475.51459"
         y="236.37929">real</tspan></text>
    <text
       xml:space="preserve"
       style="font-size:10px;font-style:normal;font-variant:normal;font-weight:normal;font-stretch:normal;line-height:125%;letter-spacing:0px;word-spacing:0px;fill:#000000;fill-opacity:1;stroke:none;font-family:Arial Narrow;-inkscape-font-specification:Arial Narrow"
       x="520.16248"
       y="270.85818"
       id="text5211-2-1"
       sodipodi:linespacing="125%"><tspan
         sodipodi:role="line"
         id="tspan5213-9-9"
         x="520.16248"
         y="270.85818">double</tspan></text>
    <text
       xml:space="preserve"
       style="font-size:10px;font-style:normal;font-variant:normal;font-weight:normal;font-stretch:normal;line-height:125%;letter-spacing:0px;word-spacing:0px;fill:#000000;fill-opacity:1;stroke:none;font-family:Arial Narrow;-inkscape-font-specification:Arial Narrow"
       x="524.00635"
       y="254.37071"
       id="text5245-5"
       sodipodi:linespacing="125%"><tspan
         sodipodi:role="line"
         id="tspan5247-7"
         x="524.00635"
         y="254.37071">2.0</tspan></text>
    <rect
       style="fill:#ffffff;fill-opacity:1;stroke:#000000;stroke-width:1;stroke-linejoin:round;stroke-miterlimit:4;stroke-opacity:1;stroke-dasharray:none;stroke-dashoffset:0"
       id="rect3755-4-2-1"
       width="74.586327"
       height="19.76021"
       x="474.03711"
       y="285.42609" />
    <text
       xml:space="preserve"
       style="font-size:10px;font-style:normal;font-variant:normal;font-weight:normal;font-stretch:normal;line-height:125%;letter-spacing:0px;word-spacing:0px;fill:#000000;fill-opacity:1;stroke:none;font-family:Arial Narrow;-inkscape-font-specification:Arial Narrow"
       x="477.14841"
       y="280.79269"
       id="text5207-7-8-4"
       sodipodi:linespacing="125%"><tspan
         sodipodi:role="line"
         id="tspan5209-5-1-3"
         x="477.14841"
         y="280.79269">imag</tspan></text>
    <text
       xml:space="preserve"
       style="font-size:10px;font-style:normal;font-variant:normal;font-weight:normal;font-stretch:normal;line-height:125%;letter-spacing:0px;word-spacing:0px;fill:#000000;fill-opacity:1;stroke:none;font-family:Arial Narrow;-inkscape-font-specification:Arial Narrow"
       x="521.79633"
       y="315.27158"
       id="text5211-2-8-3"
       sodipodi:linespacing="125%"><tspan
         sodipodi:role="line"
         id="tspan5213-9-8-4"
         x="521.79633"
         y="315.27158">double</tspan></text>
    <text
       xml:space="preserve"
       style="font-size:10px;font-style:normal;font-variant:normal;font-weight:normal;font-stretch:normal;line-height:125%;letter-spacing:0px;word-spacing:0px;fill:#000000;fill-opacity:1;stroke:none;font-family:Arial Narrow;-inkscape-font-specification:Arial Narrow"
       x="525.64014"
       y="298.78412"
       id="text5245-3-8"
       sodipodi:linespacing="125%"><tspan
         sodipodi:role="line"
         id="tspan5247-3-8"
         x="525.64014"
         y="298.78412">1.0</tspan></text>
    <text
       xml:space="preserve"
       style="font-size:10px;font-style:normal;font-variant:normal;font-weight:normal;font-stretch:normal;line-height:125%;letter-spacing:0px;word-spacing:0px;fill:#000000;fill-opacity:1;stroke:none;font-family:Arial Narrow;-inkscape-font-specification:Arial Narrow"
       x="529.64014"
       y="338.17355"
       id="text5287-6"
       sodipodi:linespacing="125%"><tspan
         sodipodi:role="line"
         id="tspan5289-9"
         x="529.64014"
         y="338.17355">Complex</tspan></text>
    <path
       style="fill:none;stroke:#000000;stroke-width:1px;stroke-linecap:butt;stroke-linejoin:miter;stroke-opacity:1;marker-end:url(#Arrow2Lend)"
       d="m 380.34437,223.38483 c 36.61972,-22.53521 21.83098,27.46479 47.1831,18.30986 25.35211,-9.15493 25.35211,-9.15493 25.35211,-9.15493"
       id="path5921-1"
       inkscape:connector-curvature="0" />
    <rect
       style="fill:#ffffff;fill-opacity:1;stroke:#000000;stroke-width:1;stroke-linejoin:round;stroke-miterlimit:4;stroke-opacity:1;stroke-dasharray:none;stroke-dashoffset:0"
       id="rect5285-3"
       width="110.56338"
       height="109.85915"
       x="188.28267"
       y="469.62509" />
    <rect
       style="fill:#ffffff;fill-opacity:1;stroke:#000000;stroke-width:1;stroke-linejoin:round;stroke-miterlimit:4;stroke-opacity:1;stroke-dasharray:none;stroke-dashoffset:0"
       id="rect3755-4-7"
       width="74.586327"
       height="19.76021"
       x="205.69373"
       y="492.88678" />
    <text
       xml:space="preserve"
       style="font-size:10px;font-style:normal;font-variant:normal;font-weight:normal;font-stretch:normal;line-height:125%;letter-spacing:0px;word-spacing:0px;fill:#000000;fill-opacity:1;stroke:none;font-family:Arial Narrow;-inkscape-font-specification:Arial Narrow"
       x="208.80501"
       y="488.25336"
       id="text5207-7-7"
       sodipodi:linespacing="125%"><tspan
         sodipodi:role="line"
         id="tspan5209-5-0"
         x="208.80501"
         y="488.25336">real</tspan></text>
    <text
       xml:space="preserve"
       style="font-size:10px;font-style:normal;font-variant:normal;font-weight:normal;font-stretch:normal;line-height:125%;letter-spacing:0px;word-spacing:0px;fill:#000000;fill-opacity:1;stroke:none;font-family:Arial Narrow;-inkscape-font-specification:Arial Narrow"
       x="253.45291"
       y="522.73224"
       id="text5211-2-3"
       sodipodi:linespacing="125%"><tspan
         sodipodi:role="line"
         id="tspan5213-9-93"
         x="253.45291"
         y="522.73224">double</tspan></text>
    <text
       xml:space="preserve"
       style="font-size:10px;font-style:normal;font-variant:normal;font-weight:normal;font-stretch:normal;line-height:125%;letter-spacing:0px;word-spacing:0px;fill:#000000;fill-opacity:1;stroke:none;font-family:Arial Narrow;-inkscape-font-specification:Arial Narrow"
       x="257.29675"
       y="506.24481"
       id="text5245-0"
       sodipodi:linespacing="125%"><tspan
         sodipodi:role="line"
         id="tspan5247-0"
         x="257.29675"
         y="506.24481">0.0</tspan></text>
    <rect
       style="fill:#ffffff;fill-opacity:1;stroke:#000000;stroke-width:1;stroke-linejoin:round;stroke-miterlimit:4;stroke-opacity:1;stroke-dasharray:none;stroke-dashoffset:0"
       id="rect3755-4-2-7"
       width="74.586327"
       height="19.76021"
       x="207.32753"
       y="537.30011" />
    <text
       xml:space="preserve"
       style="font-size:10px;font-style:normal;font-variant:normal;font-weight:normal;font-stretch:normal;line-height:125%;letter-spacing:0px;word-spacing:0px;fill:#000000;fill-opacity:1;stroke:none;font-family:Arial Narrow;-inkscape-font-specification:Arial Narrow"
       x="210.43883"
       y="532.66675"
       id="text5207-7-8-3"
       sodipodi:linespacing="125%"><tspan
         sodipodi:role="line"
         id="tspan5209-5-1-9"
         x="210.43883"
         y="532.66675">imag</tspan></text>
    <text
       xml:space="preserve"
       style="font-size:10px;font-style:normal;font-variant:normal;font-weight:normal;font-stretch:normal;line-height:125%;letter-spacing:0px;word-spacing:0px;fill:#000000;fill-opacity:1;stroke:none;font-family:Arial Narrow;-inkscape-font-specification:Arial Narrow"
       x="255.08673"
       y="567.14563"
       id="text5211-2-8-7"
       sodipodi:linespacing="125%"><tspan
         sodipodi:role="line"
         id="tspan5213-9-8-5"
         x="255.08673"
         y="567.14563">double</tspan></text>
    <text
       xml:space="preserve"
       style="font-size:10px;font-style:normal;font-variant:normal;font-weight:normal;font-stretch:normal;line-height:125%;letter-spacing:0px;word-spacing:0px;fill:#000000;fill-opacity:1;stroke:none;font-family:Arial Narrow;-inkscape-font-specification:Arial Narrow"
       x="258.93057"
       y="550.65814"
       id="text5245-3-5"
       sodipodi:linespacing="125%"><tspan
         sodipodi:role="line"
         id="tspan5247-3-5"
         x="258.93057"
         y="550.65814">0.0</tspan></text>
    <text
       xml:space="preserve"
       style="font-size:10px;font-style:normal;font-variant:normal;font-weight:normal;font-stretch:normal;line-height:125%;letter-spacing:0px;word-spacing:0px;fill:#000000;fill-opacity:1;stroke:none;font-family:Arial Narrow;-inkscape-font-specification:Arial Narrow"
       x="262.93057"
       y="590.04761"
       id="text5287-0"
       sodipodi:linespacing="125%"><tspan
         sodipodi:role="line"
         id="tspan5289-8"
         x="262.93057"
         y="590.04761">Complex</tspan></text>
    <rect
       style="fill:#ffffff;fill-opacity:1;stroke:#000000;stroke-width:1;stroke-linejoin:round;stroke-miterlimit:4;stroke-opacity:1;stroke-dasharray:none;stroke-dashoffset:0"
       id="rect5285-5"
       width="110.56338"
       height="109.85915"
       x="323.92624"
       y="468.63498" />
    <rect
       style="fill:#ffffff;fill-opacity:1;stroke:#000000;stroke-width:1;stroke-linejoin:round;stroke-miterlimit:4;stroke-opacity:1;stroke-dasharray:none;stroke-dashoffset:0"
       id="rect3755-4-3"
       width="74.586327"
       height="19.76021"
       x="341.33728"
       y="491.89667" />
    <text
       xml:space="preserve"
       style="font-size:10px;font-style:normal;font-variant:normal;font-weight:normal;font-stretch:normal;line-height:125%;letter-spacing:0px;word-spacing:0px;fill:#000000;fill-opacity:1;stroke:none;font-family:Arial Narrow;-inkscape-font-specification:Arial Narrow"
       x="344.44858"
       y="487.26324"
       id="text5207-7-4"
       sodipodi:linespacing="125%"><tspan
         sodipodi:role="line"
         id="tspan5209-5-4"
         x="344.44858"
         y="487.26324">real</tspan></text>
    <text
       xml:space="preserve"
       style="font-size:10px;font-style:normal;font-variant:normal;font-weight:normal;font-stretch:normal;line-height:125%;letter-spacing:0px;word-spacing:0px;fill:#000000;fill-opacity:1;stroke:none;font-family:Arial Narrow;-inkscape-font-specification:Arial Narrow"
       x="389.09644"
       y="521.74213"
       id="text5211-2-2"
       sodipodi:linespacing="125%"><tspan
         sodipodi:role="line"
         id="tspan5213-9-1"
         x="389.09644"
         y="521.74213">double</tspan></text>
    <text
       xml:space="preserve"
       style="font-size:10px;font-style:normal;font-variant:normal;font-weight:normal;font-stretch:normal;line-height:125%;letter-spacing:0px;word-spacing:0px;fill:#000000;fill-opacity:1;stroke:none;font-family:Arial Narrow;-inkscape-font-specification:Arial Narrow"
       x="392.94028"
       y="505.2547"
       id="text5245-2"
       sodipodi:linespacing="125%"><tspan
         sodipodi:role="line"
         id="tspan5247-07"
         x="392.94028"
         y="505.2547">0.0</tspan></text>
    <rect
       style="fill:#ffffff;fill-opacity:1;stroke:#000000;stroke-width:1;stroke-linejoin:round;stroke-miterlimit:4;stroke-opacity:1;stroke-dasharray:none;stroke-dashoffset:0"
       id="rect3755-4-2-6"
       width="74.586327"
       height="19.76021"
       x="342.9711"
       y="536.31006" />
    <text
       xml:space="preserve"
       style="font-size:10px;font-style:normal;font-variant:normal;font-weight:normal;font-stretch:normal;line-height:125%;letter-spacing:0px;word-spacing:0px;fill:#000000;fill-opacity:1;stroke:none;font-family:Arial Narrow;-inkscape-font-specification:Arial Narrow"
       x="346.0824"
       y="531.67664"
       id="text5207-7-8-2"
       sodipodi:linespacing="125%"><tspan
         sodipodi:role="line"
         id="tspan5209-5-1-0"
         x="346.0824"
         y="531.67664">imag</tspan></text>
    <text
       xml:space="preserve"
       style="font-size:10px;font-style:normal;font-variant:normal;font-weight:normal;font-stretch:normal;line-height:125%;letter-spacing:0px;word-spacing:0px;fill:#000000;fill-opacity:1;stroke:none;font-family:Arial Narrow;-inkscape-font-specification:Arial Narrow"
       x="390.73026"
       y="566.15552"
       id="text5211-2-8-8"
       sodipodi:linespacing="125%"><tspan
         sodipodi:role="line"
         id="tspan5213-9-8-8"
         x="390.73026"
         y="566.15552">double</tspan></text>
    <text
       xml:space="preserve"
       style="font-size:10px;font-style:normal;font-variant:normal;font-weight:normal;font-stretch:normal;line-height:125%;letter-spacing:0px;word-spacing:0px;fill:#000000;fill-opacity:1;stroke:none;font-family:Arial Narrow;-inkscape-font-specification:Arial Narrow"
       x="394.5741"
       y="549.66809"
       id="text5245-3-7"
       sodipodi:linespacing="125%"><tspan
         sodipodi:role="line"
         id="tspan5247-3-3"
         x="394.5741"
         y="549.66809">0.0</tspan></text>
    <text
       xml:space="preserve"
       style="font-size:10px;font-style:normal;font-variant:normal;font-weight:normal;font-stretch:normal;line-height:125%;letter-spacing:0px;word-spacing:0px;fill:#000000;fill-opacity:1;stroke:none;font-family:Arial Narrow;-inkscape-font-specification:Arial Narrow"
       x="398.5741"
       y="589.0575"
       id="text5287-8"
       sodipodi:linespacing="125%"><tspan
         sodipodi:role="line"
         id="tspan5289-83"
         x="398.5741"
         y="589.0575">Complex</tspan></text>
    <rect
       style="fill:#ffffff;fill-opacity:1;stroke:#ff2a2a;stroke-width:1;stroke-linejoin:round;stroke-miterlimit:4;stroke-opacity:1;stroke-dasharray:none;stroke-dashoffset:0"
       id="rect5285-6"
       width="110.56338"
       height="109.85915"
       x="456.59949"
       y="468.63498" />
    <rect
       style="fill:#ffffff;fill-opacity:1;stroke:#ff2a2a;stroke-width:1;stroke-linejoin:round;stroke-miterlimit:4;stroke-opacity:1;stroke-dasharray:none;stroke-dashoffset:0"
       id="rect3755-4-62"
       width="74.586327"
       height="19.76021"
       x="474.01056"
       y="491.89664" />
    <text
       xml:space="preserve"
       style="font-size:10px;font-style:normal;font-variant:normal;font-weight:normal;font-stretch:normal;line-height:125%;letter-spacing:0px;word-spacing:0px;fill:#000000;fill-opacity:1;stroke:#ff2a2a;font-family:Arial Narrow;-inkscape-font-specification:Arial Narrow"
       x="477.12183"
       y="487.26324"
       id="text5207-7-9"
       sodipodi:linespacing="125%"><tspan
         sodipodi:role="line"
         id="tspan5209-5-2"
         x="477.12183"
         y="487.26324">real</tspan></text>
    <text
       xml:space="preserve"
       style="font-size:10px;font-style:normal;font-variant:normal;font-weight:normal;font-stretch:normal;line-height:125%;letter-spacing:0px;word-spacing:0px;fill:#000000;fill-opacity:1;stroke:#ff2a2a;font-family:Arial Narrow;-inkscape-font-specification:Arial Narrow"
       x="521.76971"
       y="521.74213"
       id="text5211-2-24"
       sodipodi:linespacing="125%"><tspan
         sodipodi:role="line"
         id="tspan5213-9-91"
         x="521.76971"
         y="521.74213">double</tspan></text>
    <text
       xml:space="preserve"
       style="font-size:10px;font-style:normal;font-variant:normal;font-weight:normal;font-stretch:normal;line-height:125%;letter-spacing:0px;word-spacing:0px;fill:#000000;fill-opacity:1;stroke:#ff2a2a;font-family:Arial Narrow;-inkscape-font-specification:Arial Narrow"
       x="525.61359"
       y="505.25467"
       id="text5245-07"
       sodipodi:linespacing="125%"><tspan
         sodipodi:role="line"
         id="tspan5247-01"
         x="525.61359"
         y="505.25467">0.0</tspan></text>
    <rect
       style="fill:#ffffff;fill-opacity:1;stroke:#ff2a2a;stroke-width:1;stroke-linejoin:round;stroke-miterlimit:4;stroke-opacity:1;stroke-dasharray:none;stroke-dashoffset:0"
       id="rect3755-4-2-8"
       width="74.586327"
       height="19.76021"
       x="475.64435"
       y="536.31006" />
    <text
       xml:space="preserve"
       style="font-size:10px;font-style:normal;font-variant:normal;font-weight:normal;font-stretch:normal;line-height:125%;letter-spacing:0px;word-spacing:0px;fill:#000000;fill-opacity:1;stroke:#ff2a2a;font-family:Arial Narrow;-inkscape-font-specification:Arial Narrow"
       x="478.75565"
       y="531.67664"
       id="text5207-7-8-6"
       sodipodi:linespacing="125%"><tspan
         sodipodi:role="line"
         id="tspan5209-5-1-8"
         x="478.75565"
         y="531.67664">imag</tspan></text>
    <text
       xml:space="preserve"
       style="font-size:10px;font-style:normal;font-variant:normal;font-weight:normal;font-stretch:normal;line-height:125%;letter-spacing:0px;word-spacing:0px;fill:#000000;fill-opacity:1;stroke:#ff2a2a;font-family:Arial Narrow;-inkscape-font-specification:Arial Narrow"
       x="523.40356"
       y="566.15552"
       id="text5211-2-8-1"
       sodipodi:linespacing="125%"><tspan
         sodipodi:role="line"
         id="tspan5213-9-8-3"
         x="523.40356"
         y="566.15552">double</tspan></text>
    <text
       xml:space="preserve"
       style="font-size:10px;font-style:normal;font-variant:normal;font-weight:normal;font-stretch:normal;line-height:125%;letter-spacing:0px;word-spacing:0px;fill:#000000;fill-opacity:1;stroke:#ff2a2a;font-family:Arial Narrow;-inkscape-font-specification:Arial Narrow"
       x="527.24738"
       y="549.66803"
       id="text5245-3-6"
       sodipodi:linespacing="125%"><tspan
         sodipodi:role="line"
         id="tspan5247-3-0"
         x="527.24738"
         y="549.66803">0.0</tspan></text>
    <text
       xml:space="preserve"
       style="font-size:10px;font-style:normal;font-variant:normal;font-weight:normal;font-stretch:normal;line-height:125%;letter-spacing:0px;word-spacing:0px;fill:#000000;fill-opacity:1;stroke:#ff2a2a;font-family:Arial Narrow;-inkscape-font-specification:Arial Narrow"
       x="531.24738"
       y="589.0575"
       id="text5287-4"
       sodipodi:linespacing="125%"><tspan
         sodipodi:role="line"
         id="tspan5289-82"
         x="531.24738"
         y="589.0575">Complex</tspan></text>
    <rect
       style="fill:#ffffff;fill-opacity:1;stroke:#000000;stroke-width:1;stroke-linejoin:round;stroke-miterlimit:4;stroke-opacity:1;stroke-dasharray:none;stroke-dashoffset:0"
       id="rect3755-1"
       width="74.586327"
       height="19.76021"
       x="57.756344"
       y="475.24918" />
    <text
       xml:space="preserve"
       style="font-size:10px;font-style:normal;font-variant:normal;font-weight:normal;font-stretch:normal;line-height:125%;letter-spacing:0px;word-spacing:0px;fill:#000000;fill-opacity:1;stroke:none;font-family:Arial Narrow;-inkscape-font-specification:Arial Narrow"
       x="60.867619"
       y="470.61575"
       id="text5207-4"
       sodipodi:linespacing="125%"><tspan
         sodipodi:role="line"
         id="tspan5209-1"
         x="60.867619"
         y="470.61575">c1</tspan></text>
    <text
       xml:space="preserve"
       style="font-size:10px;font-style:normal;font-variant:normal;font-weight:normal;font-stretch:normal;line-height:125%;letter-spacing:0px;word-spacing:0px;fill:#000000;fill-opacity:1;stroke:none;font-family:Arial Narrow;-inkscape-font-specification:Arial Narrow"
       x="80.867615"
       y="508.61575"
       id="text5211-8"
       sodipodi:linespacing="125%"><tspan
         sodipodi:role="line"
         id="tspan5213-7"
         x="80.867615"
         y="508.61575">Complex REF</tspan></text>
    <rect
       style="fill:#ffffff;fill-opacity:1;stroke:#000000;stroke-width:1;stroke-linejoin:round;stroke-miterlimit:4;stroke-opacity:1;stroke-dasharray:none;stroke-dashoffset:0"
       id="rect3755-7"
       width="74.586327"
       height="19.76021"
       x="57.75634"
       y="523.76398" />
    <text
       xml:space="preserve"
       style="font-size:10px;font-style:normal;font-variant:normal;font-weight:normal;font-stretch:normal;line-height:125%;letter-spacing:0px;word-spacing:0px;fill:#000000;fill-opacity:1;stroke:none;font-family:Arial Narrow;-inkscape-font-specification:Arial Narrow"
       x="60.867619"
       y="519.13055"
       id="text5207-42"
       sodipodi:linespacing="125%"><tspan
         sodipodi:role="line"
         id="tspan5209-6"
         x="60.867619"
         y="519.13055">c2</tspan></text>
    <text
       xml:space="preserve"
       style="font-size:10px;font-style:normal;font-variant:normal;font-weight:normal;font-stretch:normal;line-height:125%;letter-spacing:0px;word-spacing:0px;fill:#000000;fill-opacity:1;stroke:none;font-family:Arial Narrow;-inkscape-font-specification:Arial Narrow"
       x="80.867622"
       y="557.13055"
       id="text5211-82"
       sodipodi:linespacing="125%"><tspan
         sodipodi:role="line"
         id="tspan5213-47"
         x="80.867622"
         y="557.13055">Complex REF</tspan></text>
    <rect
       style="fill:#ffffff;fill-opacity:1;stroke:#000000;stroke-width:1;stroke-linejoin:round;stroke-miterlimit:4;stroke-opacity:1;stroke-dasharray:none;stroke-dashoffset:0"
       id="rect3755-60"
       width="74.586327"
       height="19.76021"
       x="58.746441"
       y="569.30859" />
    <text
       xml:space="preserve"
       style="font-size:10px;font-style:normal;font-variant:normal;font-weight:normal;font-stretch:normal;line-height:125%;letter-spacing:0px;word-spacing:0px;fill:#000000;fill-opacity:1;stroke:none;font-family:Arial Narrow;-inkscape-font-specification:Arial Narrow"
       x="61.857716"
       y="564.67517"
       id="text5207-9"
       sodipodi:linespacing="125%"><tspan
         sodipodi:role="line"
         id="tspan5209-10"
         x="61.857716"
         y="564.67517">sum</tspan></text>
    <text
       xml:space="preserve"
       style="font-size:10px;font-style:normal;font-variant:normal;font-weight:normal;font-stretch:normal;line-height:125%;letter-spacing:0px;word-spacing:0px;fill:#000000;fill-opacity:1;stroke:none;font-family:Arial Narrow;-inkscape-font-specification:Arial Narrow"
       x="81.857712"
       y="602.67517"
       id="text5211-4"
       sodipodi:linespacing="125%"><tspan
         sodipodi:role="line"
         id="tspan5213-6"
         x="81.857712"
         y="602.67517">Complex REF</tspan></text>
    <rect
       style="fill:#ffffff;fill-opacity:1;stroke:#ff2a2a;stroke-width:1;stroke-linejoin:round;stroke-miterlimit:4;stroke-opacity:1;stroke-dasharray:none;stroke-dashoffset:0"
       id="rect3755-1-3"
       width="74.586327"
       height="19.76021"
       x="604.78601"
       y="478.71451" />
    <text
       xml:space="preserve"
       style="font-size:10px;font-style:normal;font-variant:normal;font-weight:normal;font-stretch:normal;line-height:125%;letter-spacing:0px;word-spacing:0px;fill:#000000;fill-opacity:1;stroke:#ff2a2a;font-family:Arial Narrow;-inkscape-font-specification:Arial Narrow"
       x="607.89728"
       y="474.08109"
       id="text5207-4-1"
       sodipodi:linespacing="125%"><tspan
         sodipodi:role="line"
         id="tspan5209-1-1"
         x="607.89728"
         y="474.08109">this</tspan></text>
    <text
       xml:space="preserve"
       style="font-size:10px;font-style:normal;font-variant:normal;font-weight:normal;font-stretch:normal;line-height:125%;letter-spacing:0px;word-spacing:0px;fill:#000000;fill-opacity:1;stroke:#ff2a2a;font-family:Arial Narrow;-inkscape-font-specification:Arial Narrow"
       x="627.89728"
       y="512.08105"
       id="text5211-8-6"
       sodipodi:linespacing="125%"><tspan
         sodipodi:role="line"
         id="tspan5213-7-6"
         x="627.89728"
         y="512.08105">Complex REF</tspan></text>
    <rect
       style="fill:#ffffff;fill-opacity:1;stroke:#ff2a2a;stroke-width:1;stroke-linejoin:round;stroke-miterlimit:4;stroke-opacity:1;stroke-dasharray:none;stroke-dashoffset:0"
       id="rect3755-7-6"
       width="74.586327"
       height="19.76021"
       x="604.78601"
       y="527.22931" />
    <text
       xml:space="preserve"
       style="font-size:10px;font-style:normal;font-variant:normal;font-weight:normal;font-stretch:normal;line-height:125%;letter-spacing:0px;word-spacing:0px;fill:#000000;fill-opacity:1;stroke:#ff2a2a;font-family:Arial Narrow;-inkscape-font-specification:Arial Narrow"
       x="607.89728"
       y="522.59589"
       id="text5207-42-9"
       sodipodi:linespacing="125%"><tspan
         sodipodi:role="line"
         id="tspan5209-6-9"
         x="607.89728"
         y="522.59589">addend</tspan></text>
    <text
       xml:space="preserve"
       style="font-size:10px;font-style:normal;font-variant:normal;font-weight:normal;font-stretch:normal;line-height:125%;letter-spacing:0px;word-spacing:0px;fill:#000000;fill-opacity:1;stroke:#ff2a2a;font-family:Arial Narrow;-inkscape-font-specification:Arial Narrow"
       x="627.89734"
       y="560.59589"
       id="text5211-82-6"
       sodipodi:linespacing="125%"><tspan
         sodipodi:role="line"
         id="tspan5213-47-5"
         x="627.89734"
         y="560.59589">Complex REF</tspan></text>
    <rect
       style="fill:#ffffff;fill-opacity:1;stroke:#ff2a2a;stroke-width:1;stroke-linejoin:round;stroke-miterlimit:4;stroke-opacity:1;stroke-dasharray:none;stroke-dashoffset:0"
       id="rect3755-60-5"
       width="74.586327"
       height="19.76021"
       x="605.77612"
       y="572.77393" />
    <text
       xml:space="preserve"
       style="font-size:10px;font-style:normal;font-variant:normal;font-weight:normal;font-stretch:normal;line-height:125%;letter-spacing:0px;word-spacing:0px;fill:#000000;fill-opacity:1;stroke:#ff2a2a;font-family:Arial Narrow;-inkscape-font-specification:Arial Narrow"
       x="608.88739"
       y="568.1405"
       id="text5207-9-9"
       sodipodi:linespacing="125%"><tspan
         sodipodi:role="line"
         id="tspan5209-10-0"
         x="608.88739"
         y="568.1405">sum</tspan></text>
    <text
       xml:space="preserve"
       style="font-size:10px;font-style:normal;font-variant:normal;font-weight:normal;font-stretch:normal;line-height:125%;letter-spacing:0px;word-spacing:0px;fill:#000000;fill-opacity:1;stroke:#ff2a2a;font-family:Arial Narrow;-inkscape-font-specification:Arial Narrow"
       x="628.88739"
       y="606.1405"
       id="text5211-4-4"
       sodipodi:linespacing="125%"><tspan
         sodipodi:role="line"
         id="tspan5213-6-7"
         x="628.88739"
         y="606.1405">Complex REF</tspan></text>
    <path
       style="fill:none;stroke:#000000;stroke-width:1px;stroke-linecap:butt;stroke-linejoin:miter;stroke-opacity:1;marker-end:url(#Arrow2Lend-2)"
       d="m 102.9703,485.03545 c 42.57425,-45.54455 32.67326,25.74257 58.41584,9.90099 25.74257,-15.84158 25.74257,-15.84158 25.74257,-15.84158"
       id="path6459"
       inkscape:connector-curvature="0" />
    <path
       style="fill:none;stroke:#000000;stroke-width:1px;stroke-linecap:butt;stroke-linejoin:miter;stroke-opacity:1;marker-end:url(#Arrow2Lend-2)"
       d="m 110.89109,535.5305 c 141.58416,-155.44555 180.19802,-54.45545 196.0396,-55.44555 15.84159,-0.99009 15.84159,-0.99009 15.84159,-0.99009"
       id="path6461"
       inkscape:connector-curvature="0" />
    <path
       style="fill:none;stroke:#000000;stroke-width:1px;stroke-linecap:butt;stroke-linejoin:miter;stroke-opacity:1;marker-end:url(#Arrow2Lend-2)"
       d="m 110.52632,579.42985 c 260.15037,71.42857 253.38345,34.58647 298.49624,16.54136 45.11278,-18.04512 45.11278,-18.04512 45.11278,-18.04512"
       id="path6651"
       inkscape:connector-curvature="0" />
    <path
       style="fill:none;stroke:#ff2a2a;stroke-width:1px;stroke-linecap:butt;stroke-linejoin:miter;stroke-opacity:1;marker-end:url(#Arrow2Lend-2)"
       d="M 618.79699,488.45241 C 368.42105,404.24188 286.46617,428.30203 277.44361,447.8509 c -9.02256,19.54888 -9.02256,19.54888 -9.02256,19.54888"
       id="path6837"
       inkscape:connector-curvature="0" />
    <path
       style="fill:none;stroke:#ff2a2a;stroke-width:1px;stroke-linecap:butt;stroke-linejoin:miter;stroke-opacity:1;marker-end:url(#Arrow2Lend-2)"
       d="M 632.33083,538.07647 C 496.2406,400.48248 458.64662,469.65542 447.36842,471.91105 c -11.27819,2.25564 -11.27819,2.25564 -11.27819,2.25564"
       id="path7209"
       inkscape:connector-curvature="0" />
    <path
       style="fill:#e6e6e6;stroke:#ff2a2a;stroke-width:1px;stroke-linecap:butt;stroke-linejoin:miter;stroke-opacity:1;marker-end:url(#Arrow2Lend-2);fill-opacity:1"
       d="M 624.81203,582.43737 567.66917,565.14414"
       id="path7581"
       inkscape:connector-curvature="0" />
    <path
       style="fill:none;stroke:#000000;stroke-width:1px;stroke-linecap:butt;stroke-linejoin:miter;stroke-opacity:1"
       d="m 85.314685,446.76778 c -1.288205,-0.67413 -3.992988,0.32028 -5.594405,0 -1.804496,0.72315 -2.750178,-1.10948 -4.195804,-1.3986 -0.586693,-0.11734 -5.819682,0 -6.293707,0 -3.496503,0 -6.993007,0 -10.48951,0 -1.864802,0 -3.729604,0 -5.594406,0 -0.2331,0 -0.534474,-0.16483 -0.699301,0 -0.164826,0.16482 0.164827,0.53447 0,0.6993 -0.164826,0.16482 -0.490809,-0.10425 -0.6993,0 -0.589702,0.29485 -0.8089,1.10375 -1.398602,1.3986 -0.208491,0.10424 -0.534474,-0.16483 -0.6993,0 -0.164827,0.16482 0.104245,0.49081 0,0.6993 -0.419581,0.83916 -1.678322,1.25874 -2.097902,2.0979 -0.104246,0.20849 0,0.4662 0,0.6993 -0.466201,0.4662 -1.032884,0.85003 -1.398602,1.3986 -0.889663,1.3345 2.093594,0.23598 -0.699301,2.0979 -0.387902,0.25861 -0.981619,-0.20849 -1.398601,0 -0.208491,0.10425 0.07371,0.47817 0,0.69931 -0.164827,0.49448 -0.330737,1.03003 -0.699301,1.3986 -0.164826,0.16482 -0.534474,-0.16483 -0.6993,0 -0.329654,0.32965 0.208491,0.98162 0,1.3986 -0.147426,0.29485 -0.595055,0.38656 -0.699301,0.6993 -0.147426,0.44228 0.11307,0.94632 0,1.3986 -0.126416,0.50567 -0.572884,0.89294 -0.699301,1.3986 -0.133219,0.53288 0,4.17158 0,4.89511 0,1.3986 0,2.7972 0,4.1958 0,0.16618 -0.07837,2.64047 0,2.7972 0.147426,0.29485 0.595055,0.38657 0.699301,0.6993 0.221138,0.66342 -0.221138,1.43449 0,2.09791 0.164827,0.49448 0.534474,0.90412 0.699301,1.3986 0.147425,0.44227 -0.208492,0.98162 0,1.3986 0.147425,0.29485 0.551875,0.40445 0.6993,0.6993 0.279721,0.55944 -0.27972,1.53846 0,2.0979 0.104246,0.20849 0.595055,-0.20849 0.699301,0 0.215068,0.43014 -0.22309,3.05032 0,3.49651 0.147426,0.29485 0.595055,0.38656 0.699301,0.6993 0.106705,0.32011 0,3.10618 0,3.4965 0,0.78527 -0.166645,4.39517 0,4.8951 0.164827,0.49448 0.534474,0.90413 0.6993,1.39861 0.07371,0.22113 0,0.4662 0,0.6993 0,0.6993 0,1.3986 0,2.0979 0,1.3986 0,2.7972 0,4.1958 0,5.36131 0,10.72261 0,16.08392 0,2.5641 0,5.1282 0,7.69231 0,0.45938 0.08222,2.63276 0,2.7972 -0.104245,0.20849 -0.534473,-0.16483 -0.6993,0 -0.206911,0.20691 0.216578,2.36405 0,2.7972 -0.147426,0.29485 -0.551875,0.40445 -0.699301,0.6993 -0.104246,0.20849 0,0.4662 0,0.6993 0,0.2331 0,0.4662 0,0.6993 0,1.39861 0,2.79721 0,4.19581 0,0.4662 0,0.9324 0,1.3986 0,0.2331 0.104246,0.49081 0,0.6993 -0.147425,0.29485 -0.595055,0.38656 -0.699301,0.6993 -0.147425,0.44228 0,0.9324 0,1.3986 0,0.39032 0.106705,3.17639 0,3.49651 -0.104245,0.31273 -0.551875,0.40445 -0.6993,0.6993 -0.104246,0.20849 0,0.4662 0,0.6993 0,0.2331 0,0.4662 0,0.6993 0,1.1655 0,2.331 0,3.4965 0,0.2331 0,0.4662 0,0.6993 0,0.2331 0.104245,0.49081 0,0.6993 -0.147426,0.29485 -0.551876,0.40445 -0.699301,0.6993 -0.106411,0.21282 0,1.78297 0,2.09791 0,1.3986 0,2.7972 0,4.1958 0,1.3986 0,2.7972 0,4.1958 0,0.4662 0,0.93241 0,1.39861 0,0.2331 0.104246,0.49081 0,0.6993 -0.147426,0.29485 -0.551875,0.40445 -0.699301,0.6993 -0.10641,0.21282 0,1.78296 0,2.0979 0,1.8648 0,3.7296 0,5.5944 0,4.42891 0,8.85781 0,13.28672 0,2.0979 0,4.1958 0,6.2937 0,0.45952 -0.131515,1.70336 0,2.09791 0.164827,0.49448 0.572885,0.89293 0.699301,1.3986 0.11307,0.45228 0,0.9324 0,1.3986 0.2331,0.4662 0.534474,0.90412 0.699301,1.3986 0.34965,1.04895 -0.699301,0.6993 0,2.0979 0.104245,0.20849 0.534474,-0.16482 0.6993,0 0.164827,0.16483 0,0.4662 0,0.6993 0,0.4662 -0.208491,0.98162 0,1.39861 0.104246,0.20849 0.534474,-0.16483 0.699301,0 0.164827,0.16482 -0.104246,0.4908 0,0.6993 0.147426,0.29485 0.551875,0.40445 0.699301,0.6993 0.104245,0.20849 -0.104246,0.49081 0,0.6993 0.147425,0.29485 0.551875,0.40445 0.6993,0.6993 0.104246,0.20849 -0.104245,0.49081 0,0.6993 0.267094,0.53419 1.940059,1.62437 2.097903,2.0979 0.147425,0.44228 -0.208492,0.98162 0,1.3986 0.104245,0.20849 0.534473,-0.16482 0.6993,0 0.164827,0.16483 -0.104245,0.49081 0,0.6993 0.147426,0.29485 0.551875,0.40445 0.699301,0.6993 0.104246,0.20849 -0.164827,0.53448 0,0.6993 0.164827,0.16483 0.490809,-0.10424 0.699301,0 0.294851,0.14743 0.4662,0.4662 0.6993,0.6993 0.233101,0.23311 0.516442,0.42502 0.699301,0.69931 0.289125,0.43368 0.330737,1.03003 0.699301,1.3986 0.164827,0.16482 0.490809,-0.10425 0.6993,0 0.294852,0.14742 0.40445,0.55187 0.699301,0.6993 0.208491,0.10424 0.595055,-0.20849 0.699301,0 0.208491,0.41698 -0.208491,0.98162 0,1.3986 0.104245,0.20849 0.505349,-0.1293 0.699301,0 0.548576,0.36572 1.003017,0.87115 1.398601,1.3986 0.312737,0.41698 0.265613,1.10948 0.699301,1.3986 0.387902,0.2586 0.956324,-0.14742 1.398601,0 0.803275,0.26776 0.970228,1.66953 1.398601,2.0979 0.04341,1.96905 1.576675,0.17808 2.097903,0.6993 3.342696,3.3427 -1.999773,0.0327 2.097902,1.39861 0.312736,0.10424 0.425012,0.51644 0.6993,0.6993 0.433688,0.28912 1.030038,0.33073 1.398602,0.6993 0.164826,0.16482 -0.164827,0.53447 0,0.6993 0.164826,0.16482 0.505349,-0.1293 0.6993,0 0.548577,0.36572 0.850025,1.03288 1.398602,1.3986 0.387902,0.2586 0.981619,-0.20849 1.398601,0 0.294851,0.14743 0.40445,0.55187 0.699301,0.6993 0.375,0.1875 1.023601,-0.1875 1.398601,0 0.294851,0.14743 0.425013,0.51644 0.699301,0.6993 0.4662,0.2331 0.932401,0.4662 1.398601,0.6993 0.233101,0 0.49081,-0.10424 0.699301,0 0.294851,0.14743 0.386564,0.59506 0.699301,0.6993 0.442276,0.14743 0.956325,-0.14742 1.398601,0 0.312737,0.10425 0.466201,0.4662 0.699301,0.6993 0.4662,0.2331 0.892936,0.57289 1.398601,0.6993 0.678422,0.16961 1.434488,-0.22113 2.097902,0 0.494481,0.16483 0.964914,0.41018 1.398602,0.6993 0.274288,0.18286 0.386564,0.59506 0.699301,0.69931 0.41588,0.13862 3.340565,-0.15594 3.496503,0 0.164827,0.16482 -0.208491,0.59505 0,0.6993 0.833965,0.41698 1.963238,-0.41699 2.797203,0 0.208491,0.10424 -0.208491,0.59505 0,0.6993 0.297213,0.1486 2.910489,0 3.496503,0 3.030303,0 6.060606,0 9.090908,0 2.331,0 4.66201,0 6.99301,0 0.55801,0 3.07696,0.13984 3.4965,0 0.49448,-0.16483 0.90412,-0.53448 1.3986,-0.6993 0.44228,-0.14743 0.98162,0.20849 1.3986,0 0.29486,-0.14743 0.40445,-0.55188 0.69931,-0.6993 0.20849,-0.10425 0.4908,0.10424 0.6993,0 0.29485,-0.14743 0.40445,-0.55188 0.6993,-0.69931 0.41698,-0.20849 1.06894,0.32966 1.3986,0 0.16482,-0.16482 -0.20849,-0.59505 0,-0.6993 0.41698,-0.20849 0.9324,0 1.3986,0 0.2331,0 0.53447,0.16483 0.6993,0 0.9324,-0.9324 -1.48344,-0.67102 0.6993,-1.3986 0.003,-10e-4 2.09724,6.7e-4 2.0979,0 0.36857,-0.36856 0.33074,-1.03004 0.6993,-1.3986 0.16483,-0.16483 0.49081,0.10425 0.6993,0 3.20043,-1.60021 -2.96742,0.28984 2.09791,-1.3986 0.22113,-0.0737 0.49081,0.10425 0.6993,0 0.29485,-0.14743 0.42501,-0.51644 0.6993,-0.6993 0.43369,-0.28913 0.96491,-0.41018 1.3986,-0.6993 0.27429,-0.18286 0.40445,-0.55188 0.6993,-0.6993 0.20849,-0.10425 0.53447,0.16482 0.6993,0 0.36856,-0.36857 0.33074,-1.03004 0.6993,-1.3986 0.16483,-0.16483 0.49081,0.10424 0.6993,0 0.29485,-0.14743 0.4662,-0.4662 0.6993,-0.6993 0.2331,-0.2331 0.51644,-0.42502 0.6993,-0.69931 0.28913,-0.43368 0.33074,-1.03003 0.6993,-1.3986 0.16483,-0.16482 0.49081,0.10425 0.6993,0 0.58971,-0.29485 0.8089,-1.10375 1.39861,-1.3986 0.20849,-0.10424 0.53447,0.16483 0.6993,0 0.16482,-0.16482 -0.16483,-0.53447 0,-0.6993 0.16482,-0.16483 0.53447,0.16483 0.6993,0 0.16482,-0.16483 -0.16483,-0.53447 0,-0.6993 0.16482,-0.16483 0.53447,0.16483 0.6993,0 0.16483,-0.16483 -0.10425,-0.49081 0,-0.6993 0.14742,-0.29485 0.55187,-0.40445 0.6993,-0.6993 0.10424,-0.20849 -0.10425,-0.49081 0,-0.6993 0.21635,-0.43271 1.18225,-0.96589 1.3986,-1.3986 0.10425,-0.20849 -0.10425,-0.49081 0,-0.6993 0.14743,-0.29485 0.55188,-0.40445 0.6993,-0.6993 0.10425,-0.2085 -0.16483,-0.53448 0,-0.69931 1.44688,-1.44687 -0.0566,2.21103 1.3986,-0.6993 0.10425,-0.20849 -0.10424,-0.49081 0,-0.6993 0.14743,-0.29485 0.55188,-0.40445 0.6993,-0.6993 0.86118,-1.72234 -2.02988,0.63129 0.6993,-2.0979 0.16483,-0.16483 0.53448,0.16483 0.6993,0 0.32966,-0.32965 -0.20849,-0.98162 0,-1.3986 0.14743,-0.29485 0.55188,-0.40445 0.69931,-0.6993 0.10424,-0.20849 -0.10425,-0.49081 0,-0.6993 0.14742,-0.29485 0.55187,-0.40445 0.6993,-0.6993 0.10424,-0.20849 0,-0.4662 0,-0.6993 0.2331,-0.4662 0.41017,-0.96492 0.6993,-1.3986 0.18286,-0.27429 0.55187,-0.40445 0.6993,-0.69931 0.20817,-0.41633 -0.19626,-2.90774 0,-3.4965 0.2331,-0.4662 0.4662,-0.9324 0.6993,-1.3986 0,-0.2331 -0.0737,-0.47816 0,-0.6993 0.16483,-0.49448 0.53447,-0.90412 0.6993,-1.3986 0.0737,-0.22114 -0.10425,-0.49081 0,-0.6993 0.14742,-0.29485 0.59505,-0.38657 0.6993,-0.6993 0.24769,-0.74309 -0.2477,-2.05412 0,-2.79721 0.16483,-0.49448 0.53447,-0.90412 0.6993,-1.3986 0.0737,-0.22114 -0.10425,-0.49081 0,-0.6993 0.14743,-0.29485 0.55188,-0.40445 0.6993,-0.6993 0.18489,-0.36977 -0.0852,-2.45651 0,-2.7972 0.12642,-0.50567 0.53447,-0.90412 0.6993,-1.3986 0.14743,-0.44228 -0.20849,-0.98162 0,-1.39861 0.14743,-0.29485 0.59506,-0.38656 0.6993,-0.6993 0.21595,-0.64784 -0.22336,-2.82642 0,-3.4965 0.2331,-0.4662 0.4662,-0.9324 0.6993,-1.3986 0,-0.2331 -0.0737,-0.47816 0,-0.6993 0.32966,-0.98896 1.14577,-1.78587 1.3986,-2.7972 0.22614,-0.90457 -0.41698,-1.96324 0,-2.79721 0.10425,-0.20849 0.59506,0.20849 0.69931,0 0.41698,-0.83396 -0.22615,-1.89264 0,-2.7972 0.40846,-1.63384 1.53258,-1.80054 2.0979,-3.4965 0.24769,-0.74309 -0.2477,-2.05412 0,-2.79721 1.68844,-5.06532 -0.20161,1.10253 1.3986,-2.0979 0.20072,-0.40144 -0.14881,-2.90125 0,-3.4965 0.84422,-3.37689 0.33232,0.0347 1.3986,-2.0979 0.21976,-0.43953 -0.21976,-2.35768 0,-2.79721 0.14743,-0.29485 0.4662,-0.4662 0.6993,-0.6993 0,-0.6993 -0.1696,-1.41948 0,-2.0979 0.0799,-0.31981 0.59506,-0.38656 0.6993,-0.6993 0.14743,-0.44228 -0.0914,-0.94145 0,-1.3986 0.14456,-0.72281 0.52052,-1.38278 0.6993,-2.0979 0.22614,-0.90457 -0.22614,-1.89264 0,-2.79721 0.0799,-0.31981 0.61935,-0.37949 0.6993,-0.6993 0.16961,-0.67842 -0.13714,-1.41218 0,-2.0979 0.10222,-0.51111 0.50572,-0.91465 0.6993,-1.3986 0.27377,-0.68441 0.52052,-1.38278 0.6993,-2.0979 0.0565,-0.22614 0,-0.4662 0,-0.6993 0,-0.6993 0,-1.3986 0,-2.09791 0,-0.4662 -0.11307,-0.94632 0,-1.3986 0.12642,-0.50566 0.59708,-0.88749 0.69931,-1.3986 0.45985,-0.89434 -0.15329,-1.87749 0,-2.7972 0.1954,-1.17241 0.50389,-2.32409 0.6993,-3.4965 0.0383,-0.22993 0,-0.46621 0,-0.69931 0,-0.6993 -0.13715,-1.41218 0,-2.0979 0.10222,-0.5111 0.57288,-0.89293 0.6993,-1.3986 0.11307,-0.45228 0,-0.9324 0,-1.3986 0,-0.6993 0,-1.3986 0,-2.0979 0,-3.03031 0,-6.06061 0,-9.09091 0,-1.8648 0,-3.72961 0,-5.59441 0,-0.6993 0,-1.3986 0,-2.0979 0,-0.2331 0.0565,-0.47316 0,-0.6993 -0.17878,-0.71512 -0.52052,-1.38278 -0.6993,-2.0979 -0.0565,-0.22614 0.0457,-0.47073 0,-0.6993 -0.18849,-0.94244 -0.5413,-1.84919 -0.6993,-2.79721 -0.0767,-0.45985 0.0914,-0.94145 0,-1.3986 -0.28805,-1.44021 -0.77701,-2.2533 -1.39861,-3.4965 -0.2331,-0.4662 -0.53447,-0.90412 -0.6993,-1.3986 -0.22114,-0.66342 0.22114,-1.43449 0,-2.0979 -0.10424,-0.31274 -0.4662,-0.4662 -0.6993,-0.6993 -0.2331,-0.4662 -0.57288,-0.89294 -0.6993,-1.39861 -0.11307,-0.45228 0.11307,-0.94632 0,-1.3986 -0.50703,-2.02813 -0.54558,-0.81836 -1.3986,-2.0979 -0.28913,-0.43369 -0.41018,-0.96491 -0.6993,-1.3986 -0.36572,-0.54858 -1.19011,-0.77313 -1.3986,-1.3986 -0.14743,-0.44228 0.20849,-0.98162 0,-1.3986 -0.10425,-0.20849 -0.53448,0.16482 -0.6993,0 -2.72919,-2.72919 0.16187,-0.37556 -0.6993,-2.09791 -0.14743,-0.29485 -0.51645,-0.42501 -0.6993,-0.6993 -0.28913,-0.43368 -0.41018,-0.96491 -0.6993,-1.3986 -0.18286,-0.27429 -0.55188,-0.40445 -0.69931,-0.6993 -0.10424,-0.20849 0.10425,-0.49081 0,-0.6993 -0.29485,-0.5897 -1.10375,-0.8089 -1.3986,-1.3986 -0.10424,-0.20849 0.10425,-0.49081 0,-0.6993 -1.45516,-2.91032 0.0483,0.74758 -1.3986,-0.6993 -0.85173,-0.85174 -0.32757,-1.56239 -1.3986,-2.0979 -0.41698,-0.2085 -1.06895,0.32965 -1.3986,0 -0.16483,-0.16483 0.16483,-0.53448 0,-0.6993 -2.72919,-2.72919 -0.37556,0.16187 -2.0979,-0.69931 -0.58971,-0.29485 -0.77313,-1.19011 -1.3986,-1.3986 -3.18342,0 -0.04,0.32966 -2.09791,-0.6993 -0.41698,-0.20849 -0.98162,0.20849 -1.3986,0 -0.5897,-0.29485 -0.8089,-1.10375 -1.3986,-1.3986 -0.41698,-0.20849 -0.98162,0.20849 -1.3986,0 -0.29485,-0.14742 -0.40445,-0.55187 -0.6993,-0.6993 -0.20849,-0.10425 -0.47816,0.0737 -0.6993,0 -0.49448,-0.16483 -0.90412,-0.53447 -1.3986,-0.6993 -0.62937,-0.20979 -1.46854,0.20979 -2.09791,0 -0.31273,-0.10425 -0.4662,-0.4662 -0.6993,-0.6993 -0.4662,-0.2331 -0.89293,-0.57289 -1.3986,-0.6993 -0.34069,-0.0852 -2.42743,0.18488 -2.7972,0 -0.29485,-0.14743 -0.40445,-0.55188 -0.6993,-0.6993 -0.20849,-0.10425 -0.47816,0.0737 -0.6993,0 -0.49448,-0.16483 -0.90412,-0.53448 -1.3986,-0.6993 -0.48101,-0.16034 -1.6853,0.2063 -2.09791,0 -0.29485,-0.14743 -0.40445,-0.55188 -0.6993,-0.6993 -0.37864,-0.18932 -1.01996,0.18932 -1.3986,0 -0.29485,-0.14743 -0.40445,-0.55188 -0.6993,-0.6993 -0.20849,-0.10425 -0.49081,0.10424 -0.6993,0 -0.29485,-0.14743 -0.40445,-0.55188 -0.6993,-0.69931 -0.37936,-0.18968 -2.60586,0.19135 -2.7972,0 -0.16483,-0.16482 0.16482,-0.53447 0,-0.6993 -0.32966,-0.32965 -0.98162,0.2085 -1.3986,0 -1.03556,-0.51778 -0.36304,-0.88082 -1.39861,-1.3986 -0.29866,-0.14933 -3.22006,0 -3.4965,0 -0.2331,0 -0.53447,0.16483 -0.6993,0 -0.16483,-0.16482 0.16483,-0.53447 0,-0.6993 -0.14296,-0.14296 -1.82063,0.13864 -2.0979,0 -0.29485,-0.14742 -0.42501,-0.51644 -0.6993,-0.6993 -0.008,-1.36868 -1.59243,-0.44656 -2.0979,-0.6993 -0.29486,-0.14743 -0.40445,-0.55187 -0.69931,-0.6993 -0.41698,-0.20849 -1.06894,0.32965 -1.3986,0 -0.16482,-0.16483 0.16483,-0.53447 0,-0.6993 -0.34965,-0.34965 -1.74825,0.34965 -2.0979,0 -0.16483,-0.16483 0.16483,-0.53447 0,-0.6993 -0.16483,-0.16483 -0.49081,0.10424 -0.6993,0 -0.29485,-0.14743 -0.40445,-0.55188 -0.6993,-0.6993 -0.379362,-0.18968 -2.605859,0.19134 -2.797203,0 -0.164827,-0.16483 0.164827,-0.53448 0,-0.6993 -0.164827,-0.16483 -0.4662,0 -0.6993,0 -0.233101,0 -0.466201,0 -0.699301,0 -3.496504,0 -6.993007,0 -10.489511,0 z"
       id="path7769"
       inkscape:connector-curvature="0" />
    <path
       style="fill:none;stroke:#ff2a2a;stroke-width:1px;stroke-linecap:butt;stroke-linejoin:miter;stroke-opacity:1"
       d="m 632.16783,448.86568 c -1.1655,0 -2.331,0 -3.4965,0 -0.2331,0 -0.49081,-0.10425 -0.6993,0 -1.72826,0.86413 0.24138,0.6993 -1.3986,0.6993 -0.25681,0 -2.76907,-0.0281 -2.79721,0 -0.16482,0.16483 0.16483,0.53447 0,0.6993 -0.24546,0.24547 -3.01347,-0.24151 -3.4965,0 -0.29485,0.14743 -0.40445,0.55188 -0.6993,0.6993 -0.20849,0.10425 -0.49081,-0.10424 -0.6993,0 -0.29485,0.14743 -0.40445,0.55188 -0.6993,0.6993 -0.37936,0.18968 -2.60586,-0.19134 -2.7972,0 -0.93241,0.9324 1.1655,0.6993 -0.69931,0.6993 -0.2331,0 -0.4662,0 -0.6993,0 -0.2331,0 -0.53447,-0.16482 -0.6993,0 -1.44687,1.44688 2.21102,-0.0566 -0.6993,1.3986 -0.55944,0.27972 -1.53846,-0.27972 -2.0979,0 -0.29485,0.14743 -0.40445,0.55188 -0.6993,0.6993 -0.20849,0.10425 -0.53447,-0.16482 -0.6993,0 -0.16483,0.16483 0.16483,0.53448 0,0.69931 -0.34965,0.34965 -1.74825,-0.34965 -2.0979,0 -0.32966,0.32965 0.32965,1.06894 0,1.3986 -0.16483,0.16482 -0.53448,-0.16483 -0.6993,0 -0.16483,0.16482 0.16482,0.53447 0,0.6993 -0.32966,0.32965 -1.06895,-0.32966 -1.39861,0 -0.32965,0.32965 0.32966,1.06895 0,1.3986 -0.16482,0.16483 -0.53447,-0.16483 -0.6993,0 -0.16482,0.16483 0.16483,0.53447 0,0.6993 -0.16482,0.16483 -0.53447,-0.16483 -0.6993,0 -0.16482,0.16483 0.16483,0.53447 0,0.6993 -0.16482,0.16483 -0.53447,-0.16483 -0.6993,0 -0.16482,0.16483 0.10425,0.49081 0,0.6993 -0.14742,0.29485 -0.55187,0.40445 -0.6993,0.6993 -0.10424,0.20849 0.16483,0.53448 0,0.6993 -0.16482,0.16483 -0.53447,-0.16482 -0.6993,0 -0.32965,0.32966 0.20849,0.98162 0,1.3986 -0.14742,0.29485 -0.55187,0.40445 -0.6993,0.6993 -0.13863,0.27727 0.14296,1.95494 0,2.09791 -0.16483,0.16482 -0.53447,-0.16483 -0.6993,0 -0.16483,0.16482 0.16483,0.53447 0,0.6993 -0.16483,0.16482 -0.53447,-0.16483 -0.6993,0 -0.19134,0.19134 0.18968,2.41784 0,2.7972 -0.14743,0.29485 -0.55188,0.40445 -0.6993,0.6993 -0.24152,0.48303 0.24547,3.25104 0,3.4965 -0.16483,0.16483 -0.53448,-0.16482 -0.6993,0 -0.14296,0.14297 0.13863,1.82064 0,2.09791 -0.14743,0.29485 -0.55188,0.40445 -0.6993,0.6993 -0.0919,0.18387 0,2.43152 0,2.7972 0,0.1696 0.0225,2.07541 0,2.0979 -0.16483,0.16483 -0.53448,-0.16482 -0.6993,0 -0.16483,0.16483 0,0.4662 0,0.6993 0,0.48639 0.12644,3.24362 0,3.49651 -0.14743,0.29485 -0.55188,0.40445 -0.6993,0.6993 -0.2085,0.41698 0.32965,1.06894 0,1.3986 -0.16483,0.16483 -0.53448,-0.16483 -0.6993,0 -0.072,0.072 0.0581,3.32217 0,3.4965 -0.10425,0.31274 -0.55188,0.40445 -0.69931,0.6993 -0.21976,0.43953 0.21977,2.35768 0,2.79721 -0.14742,0.29485 -0.55187,0.40444 -0.6993,0.6993 -0.10424,0.20849 0.16483,0.53447 0,0.6993 -0.16482,0.16482 -0.53447,-0.16483 -0.6993,0 -0.24547,0.24546 0.24152,3.01347 0,3.4965 -0.14742,0.29485 -0.55187,0.40445 -0.6993,0.6993 -0.22058,0.44117 0.22059,3.05534 0,3.4965 -0.14742,0.29486 -0.55187,0.40445 -0.6993,0.69931 -0.21231,0.42463 0.21232,3.77117 0,4.1958 -0.14742,0.29485 -0.55187,0.40445 -0.6993,0.6993 -0.13863,0.27727 0.14296,1.95494 0,2.0979 -0.16483,0.16483 -0.53447,-0.16482 -0.6993,0 -0.16483,0.16483 0,0.4662 0,0.6993 0,0.2331 0,0.4662 0,0.6993 0,0.57238 0.10231,3.9912 0,4.19581 -0.10425,0.20849 -0.53447,-0.16483 -0.6993,0 -0.19134,0.19134 0.18968,2.41784 0,2.7972 -0.14743,0.29485 -0.55188,0.40445 -0.6993,0.6993 -0.10425,0.20849 0,0.4662 0,0.6993 0,0.2331 0,0.4662 0,0.6993 0,0.67753 0.13899,3.77883 0,4.19581 -0.16483,0.49448 -0.53448,0.90412 -0.6993,1.3986 -0.13899,0.41697 0,3.51827 0,4.1958 0,3.26341 0,6.52681 0,9.79021 0,0.31636 0.0932,4.00944 0,4.19581 -0.14743,0.29485 -0.55188,0.40445 -0.6993,0.6993 -0.0784,0.15673 0,2.63102 0,2.7972 0,1.3986 0,2.7972 0,4.1958 0,3.72961 0,7.45921 0,11.18882 0,5.1282 0,10.25641 0,15.38461 0,1.3986 0,2.7972 0,4.1958 0,0.31494 -0.10641,1.88509 0,2.09791 0.14742,0.29485 0.55187,0.40445 0.6993,0.6993 0.22343,0.44687 -0.18762,2.23433 0,2.7972 0.28307,0.8492 1.11553,1.948 1.3986,2.7972 0.19537,0.5861 -0.23172,2.33376 0,2.79721 0.14743,0.29485 0.55187,0.40445 0.6993,0.6993 0.10425,0.20849 -0.16483,0.53447 0,0.6993 0.16483,0.16482 0.53447,-0.16483 0.6993,0 0.16827,0.16827 -0.16827,2.62893 0,2.7972 0.16483,0.16483 0.53447,-0.16483 0.6993,0 0.34965,0.34965 -0.34965,1.74825 0,2.0979 0.16483,0.16483 0.53448,-0.16482 0.6993,0 0.32966,0.32966 -0.32965,1.06895 0,1.3986 0.16483,0.16483 0.53448,-0.16482 0.6993,0 0.34965,0.34965 -0.34965,1.74826 0,2.09791 0.9324,0.9324 0.6993,-1.16551 0.6993,0.6993 0,0.2331 0,0.4662 0,0.6993 0,0.2331 -0.16482,0.53447 0,0.6993 1.44688,1.44688 -0.0566,-2.21102 1.39861,0.6993 0.13863,0.27727 -0.14297,1.95494 0,2.0979 0.16482,0.16483 0.53447,-0.16483 0.6993,0 0.32965,0.32965 -0.2085,0.98162 0,1.3986 0.14742,0.29485 0.55187,0.40445 0.6993,0.6993 0.10424,0.20849 -0.10425,0.49081 0,0.6993 0.29485,0.58971 1.10375,0.8089 1.3986,1.3986 0.10424,0.2085 -0.10425,0.49081 0,0.69931 0.14742,0.29485 0.55187,0.40445 0.6993,0.6993 0.10424,0.20849 -0.16483,0.53447 0,0.6993 0.16483,0.16482 0.53447,-0.16483 0.6993,0 0.23278,0.23278 -0.23278,1.16582 0,1.3986 0.16483,0.16483 0.53447,-0.16483 0.6993,0 0.16483,0.16483 -0.16483,0.53447 0,0.6993 0.16483,0.16483 0.53447,-0.16483 0.6993,0 0.16483,0.16483 -0.10424,0.49081 0,0.6993 0.41958,0.83916 1.67832,1.25874 2.0979,2.0979 0.10425,0.20849 -0.16482,0.53448 0,0.6993 0.16483,0.16483 0.53448,-0.16482 0.6993,0 0.16483,0.16483 -0.16482,0.53448 0,0.6993 0.32966,0.32966 1.06895,-0.32965 1.3986,0 0.16483,0.16483 -0.16482,0.53448 0,0.6993 0.16483,0.16483 0.53448,-0.16482 0.69931,0 0.16482,0.16483 -0.16483,0.53448 0,0.6993 0.32965,0.32966 1.06894,-0.32965 1.3986,0 0.16482,0.16483 -0.16483,0.53448 0,0.69931 0.16482,0.16482 0.53447,-0.16483 0.6993,0 0.16482,0.16482 -0.16483,0.53447 0,0.6993 0.16482,0.16482 0.49081,-0.10425 0.6993,0 0.29485,0.14742 0.40445,0.55187 0.6993,0.6993 0.55944,0.27972 1.53846,-0.27972 2.0979,0 0.29485,0.14742 0.40445,0.55187 0.6993,0.6993 0.20849,0.10424 0.49081,-0.10425 0.6993,0 0.29485,0.14742 0.40445,0.55187 0.6993,0.6993 0.20849,0.10424 0.4662,0 0.6993,0 0.4662,0 0.95633,-0.14743 1.39861,0 0.62547,0.20849 0.80889,1.10375 1.3986,1.3986 0.41698,0.20849 0.98162,-0.20849 1.3986,0 0.29485,0.14743 0.38656,0.59505 0.6993,0.6993 0.66341,0.22114 1.43449,-0.22114 2.0979,0 0.49448,0.16483 0.90412,0.53447 1.3986,0.6993 0.22114,0.0737 0.4662,0 0.6993,0 0.6993,0.2331 1.4386,0.36965 2.09791,0.6993 0.29485,0.14743 0.40444,0.55188 0.6993,0.6993 0.20849,0.10425 0.4662,0 0.6993,0 0.4662,0 0.95632,-0.14742 1.3986,0 0.31273,0.10425 0.4662,0.4662 0.6993,0.6993 0.4662,0.2331 0.89293,0.57289 1.3986,0.6993 0.67842,0.16961 1.43449,-0.22113 2.0979,0 0.49448,0.16483 0.90412,0.53448 1.3986,0.6993 2.0817,0.6939 -1.43483,-1.65585 2.09791,0.69931 0.27428,0.18285 0.40445,0.55187 0.6993,0.6993 0.20849,0.10424 0.4662,0 0.6993,0 0.4662,0 0.94632,-0.11307 1.3986,0 0.50566,0.12641 0.89293,0.57288 1.3986,0.6993 0.45228,0.11307 0.95632,-0.14743 1.3986,0 0.31274,0.10424 0.38657,0.59505 0.6993,0.6993 0.88456,0.29485 1.91265,-0.29485 2.7972,0 0.31274,0.10424 0.46621,0.4662 0.69931,0.6993 0.4662,0.2331 0.89293,0.57288 1.3986,0.6993 0.45228,0.11307 0.9324,0 1.3986,0 0.4662,0.2331 0.90412,0.53447 1.3986,0.6993 0.67008,0.22336 2.84866,-0.21595 3.4965,0 0.31274,0.10424 0.40445,0.55187 0.6993,0.6993 0.2085,0.10425 0.4662,0 0.6993,0 0.69931,0 1.41219,-0.13714 2.09791,0 0.5111,0.10222 0.90412,0.53447 1.3986,0.6993 0.44227,0.14743 0.94145,-0.0914 1.3986,0 0.94243,0.18849 1.85477,0.51081 2.7972,0.6993 0.45715,0.0914 0.9324,0 1.3986,0 0.9324,0 1.86481,0 2.79721,0 2.5641,0 5.1282,0 7.6923,0 2.33101,0 4.66201,0 6.99301,0 0.56296,0 2.35829,0.14631 2.7972,0 0.4662,-0.2331 0.9324,-0.4662 1.39861,-0.6993 0.4662,0 0.95632,0.14743 1.3986,0 0.31273,-0.10424 0.40445,-0.55187 0.6993,-0.6993 0.41698,-0.20849 0.98162,0.20849 1.3986,0 0.5897,-0.29485 0.77313,-1.19011 1.3986,-1.3986 0.44228,-0.14743 0.98162,0.20849 1.3986,0 0.20849,-0.10425 -0.10424,-0.49081 0,-0.6993 0.14743,-0.29485 0.40445,-0.55188 0.6993,-0.6993 0.20849,-0.10425 0.49081,0.10424 0.6993,0 0.92754,-0.46377 0.47107,-0.93484 1.3986,-1.3986 1.23792,-0.61896 0.23896,1.04016 1.39861,-0.6993 0.28912,-0.43369 0.33073,-1.03004 0.6993,-1.39861 0.16482,-0.16482 0.49081,0.10425 0.6993,0 0.29485,-0.14742 0.4662,-0.4662 0.6993,-0.6993 0.2331,-0.2331 0.55187,-0.40445 0.6993,-0.6993 0.10424,-0.20849 -0.16483,-0.53447 0,-0.6993 0.16483,-0.16483 0.50535,0.1293 0.6993,0 0.54858,-0.36572 0.9324,-0.9324 1.3986,-1.3986 0.2331,-0.2331 0.59506,-0.38656 0.6993,-0.6993 0.14743,-0.44228 -0.14742,-0.95633 0,-1.3986 0.20849,-0.62548 1.19011,-0.77313 1.3986,-1.3986 0.14743,-0.44228 -0.20849,-0.98162 0,-1.3986 0.10425,-0.2085 0.53448,0.16482 0.6993,0 0.36857,-0.36857 0.33074,-1.03004 0.6993,-1.39861 1.44688,-1.44687 -0.0566,2.21103 1.39861,-0.6993 0.13863,-0.27726 -0.14297,-1.95494 0,-2.0979 0.16482,-0.16483 0.53447,0.16483 0.6993,0 0.34965,-0.34965 -0.34965,-1.74825 0,-2.0979 0.16482,-0.16483 0.59505,0.20849 0.6993,0 0.38505,-0.77011 -0.27333,-1.97721 0,-2.7972 0.16482,-0.49448 0.53447,-0.90412 0.6993,-1.39861 0.19968,-0.59906 -0.15424,-2.18026 0,-2.7972 0.12641,-0.50566 0.57288,-0.89293 0.6993,-1.3986 0.1696,-0.67842 -0.22114,-1.43449 0,-2.0979 0.16483,-0.49448 0.53447,-0.90412 0.6993,-1.3986 0.12615,-0.37847 0,-2.55897 0,-2.79721 0,-1.8648 0,-3.7296 0,-5.5944 0,-0.6993 -0.22114,-1.43449 0,-2.0979 0.10424,-0.31274 0.59505,-0.38657 0.6993,-0.6993 0.12532,-0.37595 0,-2.20514 0,-2.79721 0,-2.0979 0,-4.1958 0,-6.2937 0,-4.66201 0,-9.32401 0,-13.98602 0,-5.5944 0,-11.18881 0,-16.78321 0,-1.39861 0,-2.79721 0,-4.19581 0,-0.10268 0.14145,-2.93069 0,-3.4965 -0.17878,-0.71512 -0.52052,-1.38278 -0.6993,-2.0979 -0.11307,-0.45228 0.14742,-0.95633 0,-1.39861 -0.16483,-0.49448 -0.53447,-0.90412 -0.6993,-1.3986 -0.14001,-0.42002 0.14001,-0.97857 0,-1.3986 -0.16483,-0.49448 -0.53448,-0.90412 -0.6993,-1.3986 -0.2477,-0.74308 0.24769,-2.05412 0,-2.7972 -0.10425,-0.31274 -0.55188,-0.40445 -0.6993,-0.6993 -0.10425,-0.20849 0.0565,-0.47316 0,-0.6993 -0.17878,-0.71512 -0.52052,-1.38279 -0.6993,-2.09791 -0.21867,-0.87465 0.28538,-1.94104 0,-2.7972 -0.20849,-0.62547 -1.19011,-0.77313 -1.39861,-1.3986 -0.6993,-2.0979 0.34966,-0.6993 0,-2.0979 0.16048,-1.4043 -1.09415,-2.2787 -1.3986,-3.49651 -0.22614,-0.90456 0.29485,-1.91264 0,-2.7972 -0.10424,-0.31273 -0.59505,-0.38656 -0.6993,-0.6993 -0.14742,-0.44228 0.11307,-0.94632 0,-1.3986 -0.12641,-0.50567 -0.53447,-0.90412 -0.6993,-1.3986 -0.14742,-0.44228 0.0914,-0.94146 0,-1.3986 -0.18848,-0.94244 -0.34236,-1.90485 -0.6993,-2.79721 -0.24486,-0.61215 -1.19011,-0.77312 -1.3986,-1.3986 -0.29485,-0.88455 0.29485,-1.91265 0,-2.7972 -0.10425,-0.31274 -0.55188,-0.40445 -0.6993,-0.6993 -0.32965,-0.65931 -0.36965,-1.4386 -0.6993,-2.0979 -0.14743,-0.29485 -0.55188,-0.40445 -0.6993,-0.6993 -0.10425,-0.20849 0,-0.4662 0,-0.6993 0,-0.6993 0.22114,-1.43449 0,-2.09791 -0.0737,-0.22113 -0.53448,0.16483 -0.6993,0 -0.36857,-0.36856 -0.53448,-0.90412 -0.6993,-1.3986 -0.20979,-0.62937 0.20979,-1.46853 0,-2.0979 -0.10425,-0.31274 -0.51645,-0.42501 -0.6993,-0.6993 -0.2331,-0.4662 -0.4662,-0.9324 -0.6993,-1.3986 0,-0.2331 0.10424,-0.49081 0,-0.6993 -0.14743,-0.29485 -0.59506,-0.38657 -0.69931,-0.6993 -0.14742,-0.44228 0.14743,-0.95633 0,-1.3986 -0.10424,-0.31274 -0.59505,-0.38657 -0.6993,-0.69931 -0.14742,-0.44227 0.14743,-0.95632 0,-1.3986 -0.20849,-0.62547 -1.19011,-0.77312 -1.3986,-1.3986 -0.14742,-0.44227 0.14743,-0.95632 0,-1.3986 -0.20849,-0.62547 -1.19011,-0.77313 -1.3986,-1.3986 -0.14742,-0.44228 0,-0.9324 0,-1.3986 0,-0.2331 0.10425,-0.49081 0,-0.6993 -0.14742,-0.29485 -0.55187,-0.40445 -0.6993,-0.6993 -0.20849,-0.41699 0.20849,-0.98162 0,-1.39861 -0.14743,-0.29485 -0.55187,-0.40444 -0.6993,-0.6993 -0.10425,-0.20849 0.16483,-0.53447 0,-0.6993 -0.16483,-0.16482 -0.53447,0.16483 -0.6993,0 -0.34965,-0.34965 0.34965,-1.74825 0,-2.0979 -0.16483,-0.16483 -0.53448,0.16483 -0.6993,0 -0.16483,-0.16483 0.10424,-0.49081 0,-0.6993 -0.14743,-0.29485 -0.55188,-0.40445 -0.6993,-0.6993 -0.10425,-0.20849 0.16482,-0.53447 0,-0.6993 -0.16483,-0.16483 -0.53448,0.16483 -0.6993,0 -0.23307,-0.23307 0.23306,-1.16554 0,-1.3986 -0.16483,-0.16483 -0.53448,0.16482 -0.6993,0 -0.32966,-0.32966 0.32965,-1.06895 0,-1.3986 -0.16483,-0.16483 -0.53448,0.16482 -0.6993,0 -0.34966,-0.34965 0.34965,-1.74826 0,-2.09791 -0.16483,-0.16482 -0.53448,0.16483 -0.69931,0 -0.16482,-0.16482 0.16483,-0.53447 0,-0.6993 -0.16482,-0.16482 -0.53447,0.16483 -0.6993,0 -0.32965,-0.32965 0.32966,-1.06894 0,-1.3986 -0.16482,-0.16482 -0.53447,0.16483 -0.6993,0 -0.16482,-0.16482 0.16483,-0.53447 0,-0.6993 -0.16482,-0.16483 -0.53447,0.16483 -0.6993,0 -0.16482,-0.16483 0.16483,-0.53447 0,-0.6993 -0.16482,-0.16483 -0.53447,0.16483 -0.6993,0 -0.16482,-0.16483 0.16483,-0.53447 0,-0.6993 -0.16482,-0.16483 -0.53447,0.16483 -0.6993,0 -1.44688,-1.44688 2.21102,0.0566 -0.6993,-1.3986 -0.96458,-0.48229 -0.6255,0.84689 -1.3986,-0.6993 0,-1.8648 0.2331,0.2331 -0.6993,-0.6993 -0.16483,-0.16483 0.16483,-0.53448 0,-0.6993 -0.32966,-0.32966 -1.06895,0.32965 -1.3986,0 -0.16483,-0.16483 0.16482,-0.53448 0,-0.6993 -0.16483,-0.16483 -0.49081,0.10424 -0.6993,0 -0.58971,-0.29486 -0.8089,-1.10375 -1.39861,-1.39861 -0.41698,-0.20849 -1.06894,0.32966 -1.3986,0 -0.16482,-0.16482 0.16483,-0.53447 0,-0.6993 -0.32965,-0.32965 -0.98162,0.20849 -1.3986,0 -3.20042,-1.60021 2.96743,0.28984 -2.0979,-1.3986 -0.44228,-0.14742 -0.98162,0.20849 -1.3986,0 -0.29485,-0.14742 -0.40445,-0.55187 -0.6993,-0.6993 -0.41698,-0.20849 -0.98162,0.20849 -1.3986,0 -2.91033,-1.45516 0.74757,0.0483 -0.6993,-1.3986 -0.16828,-0.16827 -2.62893,0.16827 -2.79721,0 -0.16482,-0.16483 0.16483,-0.53447 0,-0.6993 -0.14296,-0.14296 -1.82063,0.13863 -2.0979,0 -2.31929,-2.31929 0.65931,0.32965 -1.3986,-0.6993 -0.29485,-0.14743 -0.40445,-0.55188 -0.6993,-0.6993 -0.27727,-0.13864 -1.95494,0.14296 -2.0979,0 -0.16483,-0.16483 0.20849,-0.59506 0,-0.6993 -0.55944,-0.27972 -1.53846,0.27972 -2.09791,0 -0.29485,-0.14743 -0.40445,-0.55188 -0.6993,-0.6993 -0.37936,-0.18968 -2.60585,0.19134 -2.7972,0 -0.16483,-0.16483 0.16483,-0.53448 0,-0.6993 -0.16483,-0.16483 -0.49081,0.10424 -0.6993,0 -0.29485,-0.14743 -0.40445,-0.55188 -0.6993,-0.6993 -0.41698,-0.2085 -0.98162,0.20849 -1.3986,0 -0.29485,-0.14743 -0.40445,-0.55188 -0.6993,-0.69931 -0.27727,-0.13863 -1.95494,0.14297 -2.0979,0 -0.16483,-0.16482 0.16482,-0.53447 0,-0.6993 -0.32966,-0.32965 -1.06895,0.32966 -1.39861,0 -0.16482,-0.16482 0.16483,-0.53447 0,-0.6993 -0.34965,-0.34965 -1.74825,0.34965 -2.0979,0 -0.16482,-0.16482 0.16483,-0.53447 0,-0.6993 -0.32965,-0.32965 -1.06895,0.32966 -1.3986,0 -0.16483,-0.16482 0.16483,-0.53447 0,-0.6993 -0.34965,-0.34965 -1.74825,0.34965 -2.0979,0 -0.16483,-0.16482 0.16483,-0.53447 0,-0.6993 -0.32966,-0.32965 -1.06895,0.32965 -1.3986,0 -0.16483,-0.16483 0.16482,-0.53447 0,-0.6993 -0.32966,-0.32965 -0.95633,0.14743 -1.3986,0 -1.19087,-0.39695 -2.33101,-0.9324 -3.49651,-1.3986 z"
       id="path7771"
       inkscape:connector-curvature="0" />
    <text
       xml:space="preserve"
       style="font-size:10px;font-style:normal;font-variant:normal;font-weight:normal;font-stretch:normal;line-height:125%;letter-spacing:0px;word-spacing:0px;fill:#000000;fill-opacity:1;stroke:none;font-family:Arial Narrow;-inkscape-font-specification:Arial Narrow"
       x="67.832169"
       y="618.79578"
       id="text7773"
       sodipodi:linespacing="125%"><tspan
         sodipodi:role="line"
         id="tspan7775"
         x="67.832169"
         y="618.79578">visible in <tspan
   style="-inkscape-font-specification:Monospace Bold;font-family:Monospace;font-weight:bold;font-style:normal;font-stretch:normal;font-variant:normal"
   id="tspan7777">main</tspan></tspan></text>
    <text
       xml:space="preserve"
       style="font-size:10px;font-style:normal;font-variant:normal;font-weight:normal;font-stretch:normal;line-height:125%;letter-spacing:0px;word-spacing:0px;fill:#000000;fill-opacity:1;stroke:none;font-family:Arial Narrow;-inkscape-font-specification:Arial Narrow"
       x="618.18182"
       y="622.29224"
       id="text7779"
       sodipodi:linespacing="125%"><tspan
         sodipodi:role="line"
         id="tspan7781"
         x="618.18182"
         y="622.29224">visible in <tspan
   style="-inkscape-font-specification:Monospace Bold;font-family:Monospace;font-weight:bold;font-style:normal;font-stretch:normal;font-variant:normal"
   id="tspan7783">plus</tspan></tspan></text>
  </g>
</svg>
